<svg width="1024" height="1024" viewBox="0 0 1024 1024" xmlns="http://www.w3.org/2000/svg" style="display:block" preserveAspectRatio="xMidYMid meet"><rect x="0" y="0" width="1024" height="1024" fill="#E4E1D7"></rect><svg x="612" y="463" width="116" height="473" xmlns="http://www.w3.org/2000/svg" style="display:block" preserveAspectRatio="none"><svg version="1.1" xmlns="http://www.w3.org/2000/svg" style="display: block;" width="116" height="473" viewBox="191.44 798.99 110.78 449.83" preserveAspectRatio="none"><g id="svg-group-0720cf96-1db0-41a3-b9a5-06788fd6a3ae">
<path transform="translate(0,0)" fill="rgba(91, 58, 158, 1)" d="M 197.814 1153.34 C 217.801 1152.75 246.162 1152.79 265.988 1153.7 C 267.339 1171.07 266.866 1196.32 265.753 1213.59 C 257.115 1214.43 252.728 1213.96 244.361 1212.49 C 243.532 1202.06 246.102 1183.12 242.038 1175.42 C 238.415 1172.63 239.128 1173.41 234.105 1172.92 C 223.555 1175.5 219.812 1170.12 219.872 1184.45 C 219.958 1204.93 220.151 1225.45 219.756 1245.92 L 197.755 1245.95 C 196.863 1217.65 197.309 1181.64 197.814 1153.34 z"/>
<path transform="translate(0,0)" fill="rgba(91, 58, 158, 1)" d="M 198.372 1076.05 C 216.337 1075.28 250.188 1075.05 267.814 1076.51 C 268.205 1082.8 269.997 1092.58 264.776 1096.55 C 245.859 1097.54 217.38 1097 198.289 1096.47 C 194.492 1086.38 194.561 1086.16 198.372 1076.05 z"/>
<path transform="translate(0,0)" fill="rgba(91, 58, 158, 1)" d="M 199.533 920.4 C 205.446 919.859 213.716 919.932 219.833 919.827 C 220.158 921.541 220.416 923.267 220.606 925.002 C 221.588 933.304 223.174 976.388 218.807 981.935 C 213.123 982.109 204.119 982.928 199.297 980.382 C 196.499 974.398 195.991 924.81 199.533 920.4 z"/>
<path transform="translate(0,0)" fill="rgba(91, 58, 158, 1)" d="M 197.812 881.896 C 217.656 880.934 247.433 881.509 267.622 881.986 C 267.961 887.931 268.584 894.494 267.755 900.346 L 266.149 901.159 C 248.753 901.118 231.438 901.038 214.128 902.953 C 207.033 903.737 203.993 903.64 197.206 901.789 C 197.13 894.784 197.392 888.896 197.812 881.896 z"/>
<path transform="translate(0,0)" fill="rgba(91, 58, 158, 1)" d="M 207.275 998.414 C 208.951 998.103 217.34 998.125 219.536 998.095 C 221.35 1007.77 222.754 1047.93 220.655 1056.81 C 218.138 1058.46 215.872 1058.04 212.474 1058.26 C 208.184 1058.38 202.35 1057.34 197.98 1056.71 C 197.144 1046.94 196.266 1008.87 198.376 1000.53 C 200.479 998.574 204.243 998.693 207.275 998.414 z"/>
<path transform="translate(0,0)" fill="rgba(91, 58, 158, 1)" d="M 255.251 960.508 C 256.595 960.165 264.53 961.147 266.456 961.345 C 266.848 970.899 267.837 1009.07 265.298 1016.26 C 263.145 1018.57 259.707 1018.45 256.433 1018.81 C 253.311 1018.81 247.315 1018.08 243.994 1017.77 C 243.42 999.469 243.734 979.814 244.006 961.499 L 255.251 960.508 z"/>
<path transform="translate(0,0)" fill="rgba(91, 58, 158, 1)" d="M 243.892 802.972 C 256.522 802.538 269.595 802.66 282.214 802.423 C 286.34 802.659 296.831 801.851 299.378 805.625 C 301.877 809.33 302.22 820.487 298.822 823.706 C 290.432 825.24 251.414 826.358 243.974 823.567 C 240.692 820.471 241.364 806.699 243.892 802.972 z"/>
<path transform="translate(0,0)" fill="rgba(91, 58, 158, 1)" d="M 252.564 1036.37 C 259.098 1035.11 290.737 1036.11 297.726 1036.8 C 298.058 1042.2 299.079 1050.01 297.3 1054.88 C 294.826 1057.46 295.532 1056.75 291.25 1057.02 L 242.303 1056.95 C 242.084 1051.53 240.907 1043.58 243.2 1039.23 C 247.14 1036.26 247.017 1037.1 252.564 1036.37 z"/>
<path transform="translate(0,0)" fill="rgba(91, 58, 158, 1)" d="M 244.445 921.464 C 255.332 921.199 291.625 918.661 299.013 925.237 C 301.637 927.573 297.746 932.961 297.933 940.996 C 279.307 941.144 260.679 941.07 242.055 940.774 C 241.93 935.428 241.451 927.744 242.462 922.674 L 244.445 921.464 z"/>
<path transform="translate(0,0)" fill="rgba(91, 58, 158, 1)" d="M 208.793 1109.39 C 211.608 1109.09 216.905 1109.07 219.925 1108.96 C 220.307 1116.71 223.371 1128.56 217.991 1134.36 C 215.954 1136.56 210.962 1136.21 208.023 1136.25 C 204.587 1136.26 201.823 1136.5 198.643 1135.16 C 191.441 1128.92 194.881 1118.75 199.801 1112.28 C 201.814 1109.64 205.678 1109.83 208.793 1109.39 z"/>
<path transform="translate(0,0)" fill="rgba(91, 58, 158, 1)" d="M 197.345 842.087 C 205.575 841.804 213.154 841.958 221.389 842.151 C 222.108 849.222 221.701 857.553 221.528 864.764 C 196.421 864.733 196.9 870.564 197.345 842.087 z"/>
<path transform="translate(0,0)" fill="rgba(91, 58, 158, 1)" d="M 244.519 842.125 C 265.73 841.413 269.491 842.173 264.622 864.562 C 256.376 864.729 250.789 864.646 242.583 863.986 C 242.073 856.071 241.343 849.575 244.519 842.125 z"/>
</g></svg></svg><svg x="96" y="36" width="832" height="952" xmlns="http://www.w3.org/2000/svg" style="display:block" preserveAspectRatio="none"><svg version="1.1" xmlns="http://www.w3.org/2000/svg" style="display: block;" width="832" height="952" viewBox="-30.81 -17.56 1820.81 2083.12" preserveAspectRatio="none"><g id="svg-group-535af3a8-a2e7-43a2-aecf-c79275b88ed0">
<path transform="translate(0,0)" fill="rgba(91, 58, 158, 1)" d="M 549.212 1714.5 C 564.51 1712.82 580.976 1713.91 596.386 1713.88 C 621.229 1713.85 646.235 1713.28 671.062 1714.1 C 675.839 1714.26 688.518 1713.99 691.853 1717.56 C 693.951 1723.43 694.211 1729.9 694.47 1736.08 C 695.34 1756.74 695.612 1914.41 692.97 1922.02 C 692.065 1924.63 691.134 1925.26 688.739 1926.43 C 673.931 1929.07 658.602 1931.21 644.155 1926 C 642.197 1890.47 642.954 1854.79 642.945 1819.21 C 642.942 1805.21 643.542 1790.88 642.672 1776.91 C 642.527 1774.58 642.388 1770.93 640.869 1769.04 C 638.795 1766.44 635.643 1764.57 632.435 1763.81 C 618.398 1760.47 592.07 1762.67 576.691 1762.36 C 565.769 1762.14 555.562 1760.5 544.804 1758.96 C 544.494 1747.66 543.669 1735.91 544.789 1724.66 C 545.243 1720.1 545.658 1717.42 549.212 1714.5 z"/>
<path transform="translate(0,0)" fill="rgba(91, 58, 158, 1)" d="M 563.364 1269.46 C 581.482 1269.01 681.073 1267.35 689.829 1273.94 C 699.015 1290.74 691.882 1381.74 690.458 1405.58 C 681.969 1407.1 673.35 1407.58 664.751 1408 C 657.551 1408.07 650.526 1408.24 643.38 1409.16 C 642.87 1393.82 642.672 1378.46 642.788 1363.11 C 642.825 1352.87 644.086 1340.82 642.083 1330.82 C 641.443 1327.62 640.118 1324.39 637.706 1322.11 C 634.997 1319.56 631.394 1318.57 627.787 1318.13 C 617.732 1316.91 606.365 1318.11 596.152 1318.2 C 577.465 1318.32 558.778 1318.26 540.092 1318.02 C 534.942 1303.44 535.916 1288.63 536.723 1273.41 C 545.542 1270.02 554.085 1269.84 563.364 1269.46 z"/>
<path transform="translate(0,0)" fill="rgba(91, 58, 158, 1)" d="M 552.735 1536.41 C 566.677 1534.5 582.231 1535.73 596.371 1535.75 C 627.862 1535.79 660.058 1534.29 691.247 1539.03 L 691.887 1604.11 C 692.257 1624.31 697.614 1655.09 690.405 1673.81 C 687.769 1675.7 684.723 1675.18 681.635 1675.11 C 676.344 1675.04 671.054 1674.92 665.766 1674.74 C 659.963 1674.51 651.668 1674.24 647.175 1670.15 C 635.433 1659.46 651.176 1601.02 638.68 1588.54 C 636.204 1586.06 633.125 1585.37 629.76 1584.84 C 619.242 1583.17 607.492 1584.12 596.831 1584.15 L 539.517 1584.33 C 537.916 1577.18 534.228 1545.77 538.705 1539.56 C 541.007 1536.37 549.113 1536.62 552.735 1536.41 z"/>
<path transform="translate(0,0)" fill="rgba(91, 58, 158, 1)" d="M 471.489 999.477 C 509.795 999.402 554.619 996.869 592.256 1001.22 C 592.531 1016.66 592.201 1032.13 592.75 1047.56 C 587.212 1048.04 581.54 1047.96 575.977 1048.07 C 555.284 1048.72 534.422 1048.16 513.711 1048.21 C 497.566 1048.25 480.478 1049.31 464.434 1047.59 C 460.701 1047.18 457.142 1046.02 453.601 1044.83 C 453.095 1035.33 448.732 1009.87 455.396 1002.69 C 459.364 998.416 466.177 999.47 471.489 999.477 z"/>
<path transform="translate(0,0)" fill="rgba(91, 58, 158, 1)" d="M 516.2 1445.41 C 516.624 1445.38 517.047 1445.33 517.472 1445.31 C 529.187 1444.62 584.502 1442.33 591.728 1449.54 C 597.901 1455.69 596.521 1483.36 596.748 1492.81 C 580.191 1493.13 563.844 1495.98 547.25 1496.27 C 523.155 1496.63 487.323 1500.12 464.912 1492.94 C 464.181 1483.19 460.601 1458.08 466.798 1451.08 C 468.423 1449.24 471.065 1448.32 473.416 1447.93 C 480.058 1446.82 487.268 1447.61 493.99 1447.36 C 501.381 1447.08 508.838 1446.14 516.2 1445.41 z"/>
<path transform="translate(0,0)" fill="rgba(91, 58, 158, 1)" d="M 560.532 1176.38 C 568.91 1175.22 581.327 1174.4 589.562 1176.32 C 592.101 1176.91 593.293 1177.31 594.714 1179.5 C 595.797 1190.54 597.922 1210.78 593.387 1220.82 C 586.238 1225.71 552.939 1226.2 543.399 1225.79 C 529.953 1225.21 514.86 1222.1 501.521 1224.35 C 500.935 1224.45 500.352 1224.57 499.768 1224.69 C 486.704 1227 476.223 1225.05 463.392 1222.71 C 459.311 1208.35 460.596 1193.49 461.308 1178.76 C 494.01 1174.89 527.752 1181.03 560.532 1176.38 z"/>
<path transform="translate(0,0)" fill="rgba(91, 58, 158, 1)" d="M 543.085 908.318 C 559.566 908.093 576.049 908.092 592.53 908.317 C 595.955 921.648 596.551 941.512 590.994 954.429 C 589.614 957.637 587.714 957.897 584.712 959.067 C 575.509 960.633 547.888 963.502 539.808 959.416 C 537.48 958.238 536.675 955.07 536.022 952.721 C 533.696 944.343 530.368 918.6 536.198 911.283 C 538.255 908.702 540.063 908.881 543.085 908.318 z"/>
<path transform="translate(0,0)" fill="rgba(91, 58, 158, 1)" d="M 553.32 1087.44 C 566.281 1086.99 579.756 1086.87 592.336 1090.26 C 593.976 1106.45 596.138 1119.88 592.518 1136.03 L 577.251 1136 C 563.472 1136.23 549.655 1135.95 535.872 1135.89 C 534.002 1129.98 533.13 1124.36 532.829 1118.2 C 532.483 1111.13 531.629 1095.27 537.542 1090.19 C 541.478 1086.81 548.405 1087.56 553.32 1087.44 z"/>
<path transform="translate(0,0)" fill="rgba(91, 58, 158, 1)" d="M 646.588 1442.23 C 659.222 1441.85 673.564 1441.65 685.966 1444.19 C 688.635 1444.74 690.67 1445.07 692.09 1447.59 C 696.688 1455.76 694.615 1482.44 691.509 1491.49 C 690.453 1494.57 689.614 1494.99 686.755 1496.46 C 677.624 1497.07 647.538 1499 640.659 1493.78 C 636.375 1485.38 639.268 1465.58 640.333 1455.74 C 640.944 1450.1 642.045 1445.91 646.588 1442.23 z"/>
<path transform="translate(0,0)" fill="rgba(91, 58, 158, 1)" d="M 461.485 906.379 C 463.771 906.135 466.069 906.016 468.368 906.02 C 476.419 906.074 501.92 906.998 506.912 912.122 C 509.77 921.35 507.62 944.966 503.395 953.723 C 502.174 956.254 500.788 956.511 498.251 957.279 C 482.752 957.496 464.511 959.694 449.995 953.313 C 448.645 938.532 449.009 923.857 449.474 909.046 L 461.485 906.379 z"/>
<path transform="translate(0,0)" fill="rgba(91, 58, 158, 1)" d="M 540.119 1357.24 C 557.469 1355.84 575.255 1356.56 592.651 1356.88 C 594.611 1373.02 597.152 1389.07 592.281 1404.96 C 574.682 1405.44 557.137 1406.87 540.053 1401.82 C 537.638 1386.62 533.491 1372.08 540.119 1357.24 z"/>
<path transform="translate(0,0)" fill="rgba(91, 58, 158, 1)" d="M 365.706 0 L 1441.86 0 C 1448.47 10.5035 1468.17 7.58857 1479.91 9.30372 C 1621.38 29.978 1746.6 133.508 1780.28 274.514 C 1782.75 284.843 1783.05 288.59 1789.48 297.428 L 1790 298.123 L 1790 410.863 C 1780.65 425.536 1774.98 455.445 1768.09 474.256 C 1742.09 545.026 1693.54 605.288 1629.93 645.767 C 1590.52 670.33 1537.14 689.27 1490.8 694.088 C 1472.68 695.971 1426.85 696.513 1409.45 693.468 C 1388.54 689.863 1367.86 685.046 1347.51 679.041 C 1338.73 676.397 1338.37 673.51 1333.36 672.348 C 1327.99 673.489 1321.69 686.196 1315.31 692.289 L 1314.36 693.184 C 1298.28 696.179 1241.14 694.943 1221.77 694.905 L 1044.3 694.928 L 656.657 694.904 L 552.311 694.845 C 534.369 694.84 516.299 694.953 498.358 694.586 C 488.227 694.379 482.129 691.24 473.254 686.933 C 471.697 681.8 470.378 675.029 466.044 672.076 C 453.571 674.171 431.91 683.201 416.953 686.717 C 330.118 707.028 238.78 692.463 162.569 646.151 C 91.4089 602.031 37.4635 528.251 17.9532 446.922 C -30.8055 243.671 87.5939 59.4057 291.425 14.1824 C 302.827 11.6884 314.373 9.9081 325.996 8.85205 C 337.159 7.89247 348.502 8.00009 359.592 6.58091 C 362.858 6.16309 364.706 2.65436 365.706 0 z M 429.971 102.818 C 454.31 107.173 490.747 102.278 515.799 101.448 C 547.055 100.411 578.517 100.916 609.792 100.849 L 1159.52 100.542 L 1318.94 100.735 C 1370.8 100.987 1444.18 99.3277 1493.07 113.494 C 1556.11 131.514 1610.87 171.003 1647.87 225.129 C 1683.06 275.297 1696.99 337.346 1686.61 397.74 C 1675.54 459.872 1639.71 517.917 1587.61 553.898 C 1536.87 588.941 1478.02 600.68 1417.6 589.468 C 1368.36 580.33 1314.24 550.108 1285.67 508.145 C 1251.35 457.752 1239.76 415.881 1251.31 355.596 C 1258.66 317.253 1282.98 266.198 1316.37 243.777 C 1357.75 215.993 1406.18 199.157 1456.42 209.031 C 1502.69 218.125 1539.81 243.865 1565.81 283.305 C 1585.72 313.516 1594.58 352.561 1587.13 388.204 C 1580.55 419.684 1560.72 454.35 1533.42 471.972 C 1502.96 491.63 1468.83 501.03 1433.09 492.865 C 1405.65 486.599 1375.79 466.248 1360.73 442.132 C 1346.53 419.384 1346.72 391.317 1352.72 365.993 C 1357.62 345.286 1368.96 329.01 1387.19 317.991 C 1403.84 307.932 1421.78 303.326 1440.99 308.06 C 1458.21 312.303 1474.89 324.722 1484.03 339.868 C 1488.7 347.6 1489.49 356.557 1487.02 365.171 C 1485.71 369.72 1482.38 374.925 1477.98 377.028 C 1475.02 378.448 1471.75 378.026 1468.83 376.692 C 1451.55 368.783 1442.56 347.76 1419.77 355.321 C 1410.76 358.31 1403.01 364.421 1398.9 373.053 C 1393.35 384.698 1393.07 403.189 1397.93 415.124 C 1403.33 428.371 1417.98 441.609 1431.02 446.763 C 1448.51 453.674 1470.38 451.806 1487.41 444.345 C 1506.33 436.057 1528.92 412.925 1536.2 393.503 C 1545.17 369.2 1544.11 342.325 1533.25 318.805 C 1521.29 293.101 1497.83 268.136 1470.92 258.456 C 1441.49 247.875 1403.33 248.082 1374.84 261.624 C 1354.72 271.184 1326.69 296.687 1314.16 315.004 C 1308.49 323.292 1304.27 332.851 1300.94 342.292 C 1288.4 377.871 1290.27 422.478 1306.7 456.425 C 1325.44 495.157 1363.07 526.568 1403.57 540.365 C 1443.45 553.954 1494.39 552.36 1532.57 533.533 C 1578.04 511.107 1617.52 470.878 1633.9 422.55 C 1649.67 376.027 1648.52 318.715 1626.4 274.378 C 1615.7 252.904 1601.4 235.718 1584.39 219.017 C 1555.21 190.373 1532.09 174.731 1493.15 161.909 C 1456.33 149.781 1411.23 147.071 1373.76 157.715 C 1356.24 162.693 1338.29 171.232 1322.12 179.532 C 1300.02 190.872 1285.37 205.507 1268.2 222.77 C 1259.25 231.766 1249.42 240.288 1241.07 249.819 C 1225.9 267.12 1211.84 292.644 1204.95 314.469 C 1186.56 372.759 1192.06 450.33 1220.39 504.618 C 1253.97 568.955 1315.18 618.224 1384.34 639.364 C 1405.42 645.808 1427.33 647.36 1449.26 647.593 C 1501.19 648.146 1540.74 641.704 1586.98 617.07 C 1616.2 601.509 1631.71 586.467 1654.53 563.369 C 1663.49 554.296 1673.29 545.75 1681.71 536.185 C 1704.68 510.077 1721.77 476.209 1731.85 443.08 C 1748.43 388.614 1747.74 317.415 1729.11 263.474 C 1721.42 241.184 1709.41 218.838 1698.31 198.021 C 1692.61 187.329 1684.55 177.788 1676.9 168.442 C 1635.84 118.373 1580.53 81.9594 1518.3 64.023 C 1468.52 49.156 1424.68 50.9074 1373.58 51.5139 L 642.919 51.7801 C 568.358 51.2279 493.794 51.4531 419.237 52.4556 C 378.66 53.1861 339.35 51.6714 298.503 59.0725 C 250.412 67.7862 200.589 91.2962 164.799 125.023 C 154.498 134.731 145.182 145.768 134.755 155.396 C 85.6395 198.002 56.6602 263.355 53.0713 327.797 C 52.6842 334.747 55.3973 344.959 54.9225 351.468 C 36.7475 600.581 347.683 750.792 526.071 567.731 C 571.622 520.987 601.929 468.367 599.983 401.443 C 598.943 308.875 575.689 268.863 510.259 206.046 C 500.559 196.734 493.037 192.726 482.27 185.522 C 447.271 161.501 410.219 152.235 368.023 153.105 C 324.199 153.42 278.572 162.989 242.552 189.063 C 230.256 198.45 220.279 210.628 208.962 221.077 C 132.892 291.308 133.243 429.953 209.684 498.982 C 288.514 570.167 398.888 567.554 467.185 485.602 C 494.55 452.765 504.849 427.511 501.205 384.025 C 499.379 356.192 495.102 347.481 480.825 323.106 C 452.718 275.121 405.572 249.283 349.472 254.506 C 328.341 256.802 310.787 260.49 294.853 275.424 C 266.636 301.869 253.631 315.239 251.031 355.444 C 247.95 403.096 286.49 454.252 336.497 451.393 C 367.476 449.622 405.285 423.084 399.468 388.391 C 397.355 371.365 378.615 354.665 361.216 357.191 C 347.151 359.232 310.824 394.206 305.116 357.194 C 300.364 326.379 340.595 303.382 367.203 306.065 C 414.599 309.169 455.702 368.38 442.691 414.349 C 437.832 431.518 429.038 453.014 416.108 466.352 C 371.047 504.954 306.533 507.613 259.293 470.473 C 180.41 408.455 191.056 308.846 261.887 244.439 C 331.83 180.838 437.429 204.583 497.09 269.681 C 530.025 305.282 547.464 352.512 545.569 400.974 C 543.844 439.105 528.158 474.009 508.998 506.33 C 503.34 515.874 497.415 526.392 489.204 533.96 C 449.445 570.611 388.534 597.137 334.481 594.342 C 283.012 591.681 240.533 576.335 197.673 548.271 C 188.911 542.534 177.938 536.653 170.919 528.82 C 163.145 520.145 156.738 509.81 150.192 500.196 C 117.874 452.732 100.879 403.849 104.652 346.029 C 107.951 295.469 128.002 246.531 158.016 206.209 C 165.033 196.781 172.093 187.294 181.011 179.55 C 238.198 129.895 287.815 110.313 363.039 103.848 C 382.88 102.143 407.672 100.486 427.45 102.438 C 428.738 102.565 428.874 102.61 429.971 102.818 z M 1007.73 457.716 C 1005.72 423.687 1003.57 363.018 976.807 338.677 C 972.47 334.732 965.887 330.402 959.88 330.863 L 958.386 330.982 C 945.255 337.202 935.712 353.355 930.952 366.538 C 920.006 396.859 927.062 427.662 922.427 458.455 C 938.626 458.987 954.861 457.257 971.074 457.306 C 983.268 457.456 995.537 457.907 1007.73 457.716 z M 1096.08 332.071 C 1082.8 337.118 1074.32 347.7 1068.59 360.479 C 1055.6 389.426 1057.88 426.829 1056.75 458.076 C 1072.69 459.639 1089.35 457.176 1105.41 457.289 C 1118.97 457.481 1132.53 457.794 1146.08 458.229 C 1142.84 424.309 1139.83 360.982 1111.27 338.244 C 1106.64 334.553 1101.97 332.581 1096.08 332.071 z M 783.222 458.185 L 832.25 456.908 C 845.183 455.792 858.3 458.496 871.122 456.62 C 871.103 422.918 867.411 365.204 842.437 340.132 C 839.597 337.281 833.279 333.032 829.074 333.004 C 828.583 333.001 828.098 333.12 827.609 333.177 C 815.202 336.648 806.547 345.67 800.35 356.708 C 783.246 387.178 789.286 425.032 783.222 458.185 z M 600.716 557.021 C 609.86 556.651 619 555.55 628.124 555.313 C 643.555 554.912 659.228 556.046 674.716 556.034 L 815.16 555.957 L 1173.84 556.097 C 1181.92 556.615 1189.62 557.072 1197.71 556.069 C 1192.25 544.313 1184.6 536.344 1178.84 525.524 C 1175.65 519.525 1173.73 512.426 1171.52 506.002 C 1124.45 508.073 1077.4 507.185 1030.31 507.073 L 890.774 507.427 C 802.525 507.145 713.981 509.086 625.823 505.042 C 619.406 522.615 610.201 540.912 600.716 557.021 z M 646.431 458.851 C 660.551 458.305 674.714 457.511 688.84 457.353 C 698.264 457.333 725.636 459.391 732.87 455.546 C 737.117 444.255 730.647 396.076 727.485 381.569 C 726.038 374.822 723.881 368.246 721.051 361.952 C 716.11 350.935 707.571 337.502 695.618 333.191 C 694.127 332.653 692.604 332.277 691.057 331.949 C 677.847 338.036 667.219 353.227 662.21 366.678 C 651.265 396.074 652.926 428.578 646.431 458.851 z M 1244.89 176.672 C 1245.16 176.402 1245.43 176.129 1245.71 175.861 C 1251.02 170.734 1268.88 159.696 1270.81 157.046 C 1268.59 154.111 1266.98 156.849 1265.98 151.887 C 1264.08 150.905 1262.7 150.565 1260.55 150.471 C 1234.67 149.333 1208.15 149.938 1182.22 149.959 L 1049.78 150.099 L 669.502 149.849 C 636.773 150.047 604.043 150.051 571.314 149.86 C 557.808 149.825 544.032 150.741 530.566 150.086 C 528.838 154.839 527.156 155.723 523.502 158.967 C 523.782 158.729 524.057 158.485 524.341 158.252 C 524.567 158.067 524.801 157.893 525.03 157.713 L 524.368 160.225 C 535.903 168.528 562.327 195.035 573.943 197.306 C 585.731 199.61 600.336 196.32 612.393 195.917 C 631.32 195.283 650.372 195.572 669.31 195.598 L 1049.53 195.801 L 1144 195.663 C 1167.93 195.667 1198.64 196.64 1222.05 192.366 C 1231.68 190.61 1238.15 183.129 1244.89 176.672 z M 636.533 318.774 C 650.347 302.947 665.866 285.074 688.285 283.667 C 704.69 282.638 719.471 289.425 731.592 300.182 C 737.886 305.769 749.045 323.841 756.407 325.2 C 757.099 324.005 757.354 323.328 757.739 321.936 C 760.113 322.218 761.887 323.177 763.983 324.234 C 769.831 322.677 772.56 314.683 776.117 310.129 C 796.23 284.371 822.009 272.08 852.437 289.801 C 859.3 293.798 865.049 298.993 870.925 304.281 C 877.293 310.918 884.674 324.888 890.804 329.304 C 892.469 327.961 893.597 326.56 894.909 324.89 C 896.72 325.411 896.872 325.557 898.107 326.839 C 900.159 326.484 900.308 326.241 901.583 324.476 C 902.309 323.469 902.706 322.493 903.231 321.381 C 904.956 317.727 907.882 315.097 910.453 312.053 C 920.106 300.625 929.026 289.935 943.738 285.017 C 957.376 280.459 974.471 281.635 987.278 288.194 C 1006.05 297.808 1025.09 329.795 1031.17 331.933 L 1031.85 330.142 C 1030.76 327.933 1029.61 325.806 1028.38 323.673 L 1029.15 322.59 C 1033.74 322.285 1035.79 322.303 1038.98 318.652 C 1054.54 300.836 1064.44 282.655 1090.78 280.629 C 1106 279.458 1119.25 286.172 1130.47 295.943 C 1135.17 300.032 1154.25 323.111 1157.53 324.041 C 1160.31 320.561 1157.35 315.031 1159.18 312.754 C 1162 309.237 1184.83 252.608 1187.17 245.004 C 1140.98 240.702 1094.33 241.722 1048 242.129 C 1019.98 242.376 991.874 241.767 963.872 242.531 L 729.107 243.811 L 640.507 244.442 C 628.689 244.494 616.512 245.634 604.743 244.973 C 610.404 259.97 617.751 274.307 624.191 288.979 C 628.498 298.794 631.745 309.199 636.533 318.774 z M 504.247 647.703 C 530.352 649.87 556.47 648.715 582.634 648.395 C 623.229 647.807 663.827 647.455 704.427 647.339 L 1203.77 647.034 C 1212.85 647.065 1267.63 648.614 1271.69 646.05 C 1273.48 644.919 1275.4 641.004 1276.53 639.103 C 1261.64 625.468 1246.3 607.17 1225.63 603.214 C 1207.28 599.704 1183.55 603.025 1164.58 603.194 L 1019.51 603.97 L 702.299 603.669 C 676.697 603.608 650.957 604.063 625.371 603.305 C 610.893 602.877 595.723 600.739 581.319 601.384 L 579.713 601.468 C 574.61 601.626 568.817 601.381 563.903 602.884 C 544.905 608.698 520.977 634.836 504.247 647.703 z"/>
<path transform="translate(0,0)" fill="rgba(91, 58, 158, 1)" d="M 899.183 773.494 C 918.84 741.071 954.762 731.004 989.145 749.837 C 995.03 753.06 1012.49 768.778 1015.73 769.633 C 1019.15 768.447 1024.54 764.116 1027.14 761.041 C 1045.57 739.239 1076.48 736.044 1102 745.176 C 1110.58 748.245 1122.44 763.34 1128.67 770.8 C 1142.18 754.56 1153.1 744.386 1175.15 742.759 C 1194.87 741.304 1213.58 745.208 1229.5 757.521 C 1244.27 768.942 1246.31 753.585 1260.35 749.212 C 1265.04 747.75 1268.93 746.096 1273.51 748.767 C 1282.44 759.419 1263.91 780.279 1261.07 792.838 C 1256.64 812.477 1253.41 842.774 1254.04 862.558 C 1239.71 862.457 1222.8 861.922 1208.67 862.473 C 1209.26 831.071 1213.92 808.048 1187.7 786.433 C 1179.76 786.096 1175.8 785.972 1167.98 786.801 C 1155.81 798.489 1154.12 803.183 1154.01 820.056 C 1153.76 857.485 1154.2 894.915 1154.35 932.342 C 1154.38 938.953 1155.11 954.263 1151.08 959.342 C 1142.63 962.743 1110.74 960.649 1099.29 961.094 C 1098.82 931.375 1098.94 901.651 1099.63 871.937 C 1100.05 847.986 1101.3 827.775 1099.1 803.604 C 1084.99 788.885 1073.81 775.869 1053.13 794.893 C 1041.63 805.47 1040.9 818.687 1040.92 833.42 L 1041 1623.9 L 1041.12 1868.99 C 1041.11 1907.61 1039.56 1959.32 1041.36 1996.7 C 1029.51 1997.25 1017.59 1997.95 1005.77 1997.99 C 993.012 1998.03 990.079 1990.56 989.855 1979.27 C 989.092 1940.87 989.262 1902.34 989.231 1863.92 L 989.196 1651.22 L 989.121 1032.36 L 989.027 890.138 C 988.998 869.125 997.312 787.15 957.725 785.943 C 949.15 785.682 940.457 789.814 934.153 796.093 C 928 802.213 924.2 810.306 923.42 818.949 C 922.655 827.892 923.052 843.156 922.994 852.727 L 922.748 920.287 L 922.863 1134.3 L 923.061 1819.91 L 923.231 1965.22 C 923.287 1983.14 924.533 2032.6 921.242 2048 L 875.335 2048 C 873.956 2027.01 875.009 2006.41 874.378 1985.57 C 873.717 1963.75 875.854 1939.44 874.4 1918 C 869.42 1844.58 871.408 1770.63 871.445 1696.95 L 871.358 1134.6 L 871.401 945.252 L 871.125 874.994 C 871.029 861.271 871.118 847.145 870.377 833.473 C 869.831 823.399 867.646 813.095 866.297 803.113 C 860.974 796.95 855.537 790.97 848.774 786.33 C 840.4 785.698 835.81 785.749 827.344 786.349 C 819.221 793.156 812.202 799.191 805.95 807.806 C 803.227 907.621 805.17 1014.71 805.172 1114.95 L 805.146 1658.27 L 805.289 1878.19 L 805.265 1950.99 C 805.244 1961.85 805.539 1980.62 804.498 1990.95 C 803.968 1996.21 759.316 1993.92 753.164 1994.46 L 753.217 1224.29 L 753.292 969.286 L 753.028 881.995 C 752.943 866.491 752.421 849.537 752.377 833.209 C 752.296 802.485 731.437 767.547 700.146 797.667 C 688.432 808.942 691.175 832.512 691.228 848.997 L 691.396 906.306 L 691.62 1115.67 C 691.619 1144.1 693.29 1197.03 690.46 1223.26 C 680.774 1225.52 651.192 1228.88 642.437 1224.95 C 636.997 1208.92 640.928 1121.64 642.391 1100.28 C 643.268 1087.48 640.392 1071.86 640.264 1059 C 640.017 1034.22 639.987 1009.04 639.965 984.244 L 639.619 875.02 C 639.654 854.814 640.478 831.299 638.521 811.399 C 637.703 803.081 630.532 791.972 622.71 788.356 C 615.79 785.157 613.693 785.986 606.092 786.651 C 592.32 798.152 588.184 804.776 587.974 823.323 C 587.843 834.87 586.706 847.081 587.292 858.612 C 574.417 858.852 551.441 857.443 540.164 858.513 C 538.24 842.826 537.657 825.36 535.289 810.278 C 530.951 791.423 508.615 768.528 518.858 748.502 C 522.874 740.649 540.61 748.068 545.69 753.902 C 559.824 770.132 565.196 755.971 579.707 748.413 C 612.978 731.083 642.358 744.223 665.158 770.954 C 674.545 759.578 693.101 741.954 708.704 740.887 C 729.668 739.453 747.699 742.968 764.38 756.492 C 768.21 759.597 776.76 768.494 780.268 769.72 C 785.482 767.934 794.937 757.536 799.828 753.862 C 834.724 727.644 875.811 741.614 899.183 773.494 z"/>
</g></svg></svg></svg>